<svg xmlns="http://www.w3.org/2000/svg" width="105.7867" height="120" viewBox="0 0 105.7867 120"><polygon points="30.506 53.524 30.506 69.494 1.212 86.342 1.212 29.007 50.768 0.395 50.903 34.028 37.037 41.99 37.037 24.236 15.525 37.197 15.525 62.213 30.506 53.524"/><polygon points="37.305 49.624 50.903 41.68 50.903 57.696 37.305 65.524 37.305 49.624"/><polygon points="57.684 57.689 57.684 0.714 72.475 9.002 82.421 41.389 93.004 20.86 104.551 27.681 104.743 84.682 94.024 78.534 94.024 48.912 85.991 65.233 78.851 60.898 71.2 36.161 71.451 65.524 57.684 57.689"/><polygon points="54.203 63.907 4.579 92.5 19.152 101.165 52.173 93.585 39.686 113.015 51.366 119.605 101.367 90.96 90.611 84.791 64.489 99.872 74.607 84.755 67.282 80.739 42.035 86.482 67.969 71.803 54.203 63.907"/></svg>