<svg xmlns="http://www.w3.org/2000/svg" width="140.0168" height="160" viewBox="0 0 140.0168 160"><defs><style>.a{fill:#fff;}</style></defs><polygon class="a" points="40.049 71.39 40.049 92.563 1.212 114.901 1.212 38.886 66.914 0.953 67.092 45.543 48.709 56.099 48.709 32.56 20.188 49.744 20.188 82.911 40.049 71.39"/><polygon class="a" points="49.064 66.219 67.092 55.688 67.092 76.922 49.064 87.301 49.064 66.219"/><polygon class="a" points="76.083 76.913 76.083 1.376 95.693 12.364 108.878 55.302 122.909 28.085 138.219 37.128 138.473 112.7 124.262 104.549 124.262 65.276 113.612 86.914 104.145 81.166 94.002 48.371 94.335 87.301 76.083 76.913"/><polygon class="a" points="71.468 85.156 5.676 123.065 24.997 134.553 68.775 124.504 52.22 150.263 67.706 159 133.997 121.023 119.737 112.844 85.105 132.839 98.519 112.797 88.808 107.472 55.335 115.086 89.718 95.625 71.468 85.156"/></svg>