<?xml version="1.0" encoding="UTF-8"?><svg id="a" xmlns="http://www.w3.org/2000/svg" width="335.35066" height="335.35066" viewBox="0 0 335.35066 335.35066"><path d="M228.31676,130.63948c-1.13429,0-2.26922-.26895-3.30623-.80876L79.91968,54.33035c-2.71302-1.41214-4.23071-4.39157-3.7761-7.41677.45397-3.0252,2.77978-5.42731,5.78845-5.98047L236.47743,12.54084c2.20373-.40374,4.4685.24542,6.12289,1.75485,1.65375,1.51069,2.50638,3.70743,2.30355,5.9385l-9.45455,103.89264c-.21681,2.37731-1.60352,4.49075-3.69853,5.63522-1.0688.58495-2.25142.87742-3.43403.87742ZM105.03434,51.25238l104.78026,54.52412c5.88529,3.06251,12.99647-.82344,13.59774-7.43057l6.37125-70.01211-124.74925,22.91855Z" style="fill:#474747;"/><path d="M303.63529,222.18715c-2.08483,0-4.13406-.90921-5.53476-2.61192l-75.31471-91.54768c-1.1966-1.45474-1.77201-3.32276-1.60162-5.19905l9.45455-103.89264c.3071-3.37172,2.93301-6.06757,6.29583-6.46369,3.35901-.39166,6.54189,1.61687,7.62341,4.82583l65.86016,195.43968c1.10377,3.27571-.2893,6.87188-3.31068,8.54915-1.09424.60784-2.28893.90031-3.47218.90031ZM240.23331,126.68954l44.16288,53.6814-42.56965-126.3248-5.4664,60.07065c-.41288,4.53722.97868,9.0544,3.87317,12.57275Z" style="fill:#474747;"/><path d="M163.24501,319.72865c-1.52341,0-3.04491-.48449-4.32036-1.44966-2.47077-1.86802-3.4601-5.11322-2.45233-8.04305l65.07238-189.08854c.84436-2.45297,2.94827-4.25741,5.50043-4.71774,2.55279-.46097,5.15518.49466,6.80257,2.49811l75.31471,91.54768c1.27036,1.54503,1.8375,3.55039,1.56347,5.53158-.27467,1.98247-1.36509,3.75893-3.00804,4.89958l-140.38709,97.5415c-1.2303.85453-2.65897,1.28053-4.08574,1.28053ZM226.60226,150.46791l-49.45962,143.72136,116.0227-80.61231-53.81053-65.40968c-3.68817-4.48318-10.86347-3.18872-12.75255,2.30063Z" style="fill:#474747;"/><path d="M28.52557,214.2878c-2.29372,0-4.54337-1.10191-5.94537-3.16012-1.30516-1.91604-1.49695-4.38554-.74338-6.57798L76.45323,45.64958c.67714-1.97166,2.18021-3.55039,4.11626-4.32354,1.93796-.77124,4.11308-.66252,5.96266.2982l144.84961,75.37483c2.02821,1.05541,3.58078,2.9361,3.98205,5.18699.60503,3.39384-1.23717,6.62298-4.28126,7.89771L31.29009,213.7321c-.89268.37386-1.83242.5557-2.76452.5557ZM87.29576,58.16876l-46.80799,136.18373,158.53056-66.37272c4.93806-2.06744,5.22515-8.95592.47623-11.42707l-112.1988-58.38394Z" style="fill:#474747;"/><path d="M163.24501,319.72865c-1.58127,0-3.13901-.52391-4.41446-1.52214L24.31943,212.92921c-1.53061-1.19796-2.64439-2.9104-2.89509-4.83784-.43012-3.30697,1.41139-6.34752,4.33416-7.57149l199.79247-83.64832c3.08497-1.29049,6.72783-.29499,8.69908,2.59096,1.31434,1.92422,1.50564,4.40767.74736,6.6111l-64.98098,188.82412c-.75344,2.18974-2.51973,3.87974-4.74063,4.53717-.66697.1971-1.3511.29375-2.03079.29375ZM42.55735,209.01436l117.18561,91.71744,51.81324-150.55958c1.85414-5.38778-3.53233-10.43474-8.78817-8.23424L42.55735,209.01436Z" style="fill:#474747;"/><path d="M99.84101,134.43783c-1.68018,0-3.37192-.3827-4.94408-1.16567-3.09418-1.54098-5.2051-4.5446-5.95196-7.91962l-16.21093-73.25688c-.30596-1.38263-.40362-2.81684-.17263-4.21396.80182-4.84969,4.47917-8.37031,8.95161-9.19109L236.05907,10.29896c5.62674-1.03396,11.22132,2.39669,12.72118,8.12647,1.16298,4.44283-.72672,9.13486-4.4196,11.86504l-137.93833,101.97924c-1.93287,1.42867-4.24533,2.16813-6.58131,2.16813ZM98.20308,64.73546l6.84651,30.93942c.90125,4.07277,5.69721,5.86812,9.05138,3.38835l67.12182-49.6237c2.89689-2.1417.90865-6.72688-2.63467-6.07596l-75.39622,13.85069c-3.49295.64167-5.75613,4.05367-4.98882,7.52119Z" style="fill:#fff;"/><path d="M303.91632,227.69203c-1.55647,0-3.12439-.32808-4.59757-1.00077l-204.07658-93.25484c-4.33008-1.97812-6.9965-6.55916-6.38058-11.48726.38755-3.10085,2.19441-5.84866,4.70722-7.70641L231.47866,12.28461c3.98188-2.94325,9.60077-2.97252,13.72638.42664,1.62945,1.34253,2.75633,3.19887,3.43055,5.1996l65.77229,195.1778c1.40896,4.18238.19965,8.80221-3.07798,11.7562-2.0753,1.87056-4.72791,2.84718-7.41359,2.84718ZM132.67672,126.20437l135.55233,61.94113c6.45887,2.9514,13.32293-3.23608,11.0552-9.9655l-43.07038-127.80989c-1.87392-5.56079-8.62277-7.68227-13.3413-4.19381l-91.48901,67.63891c-4.42869,3.27418-3.7162,10.10011,1.29316,12.38916Z" style="fill:#fff;"/><path d="M163.53113,325.2348c-1.17181,0-2.3487-.18566-3.48808-.5646-3.30878-1.09869-5.90608-3.69154-7.00985-6.99904l-63.68949-190.79697c-1.39561-4.18048-.17803-8.79013,3.09959-11.73649,3.27889-2.94509,7.99155-3.6661,11.99908-1.83496l204.07658,93.25357c3.61715,1.65312,6.06948,5.11957,6.42426,9.0807.35415,3.96112-1.4433,7.8078-4.70884,10.07638l-140.38709,97.54277c-1.87692,1.30469-4.08574,1.97865-6.31618,1.97865ZM122.82114,157.25212l42.75407,128.08025c1.88709,5.65323,8.67575,7.90814,13.57017,4.50745l91.49542-63.57187c4.8614-3.37775,4.20018-10.76234-1.18398-13.22269l-138.36485-63.22728c-4.82138-2.20318-9.94927,2.40596-8.27083,7.43414Z" style="fill:#fff;"/><path d="M28.80596,219.79395c-2.21084,0-4.44621-.66135-6.40205-2.04051-4.07668-2.87466-5.56629-8.24168-3.94488-12.9591L73.04526,45.97894c1.80604-5.25498,7.2875-8.43835,12.89401-7.20557,4.27347.93966,7.50691,4.46472,8.4523,8.73692l16.25764,73.468c.73945,3.34247-.10936,6.83945-2.2991,9.47109l-71.0306,85.35676c-2.16558,2.60175-5.3135,3.98783-8.51355,3.98783ZM78.37058,98.58762l-16.19551,47.12017c-.67113,1.95263,1.86559,3.38009,3.18632,1.793l19.87097-23.87839c1.6593-1.99394,2.30245-4.64353,1.74194-7.17629l-3.89307-17.59143c-.53475-2.41636-3.90624-2.60749-4.71066-.26706Z" style="fill:#fff;"/><path d="M163.5324,325.2348c-2.41355,0-4.82328-.78714-6.82228-2.35251L21.99003,217.44144c-2.35696-1.84386-3.86638-4.56514-4.18429-7.54075-.31727-2.97688.58368-5.95376,2.49811-8.25541l71.0306-85.35549c2.56805-3.08688,6.60547-4.54162,10.55388-3.79772,3.9465.74263,7.18152,3.56374,8.45251,7.3729l63.68949,190.79697c1.54694,4.63381-.12653,9.73304-4.11753,12.54842-1.91698,1.35174-4.15059,2.02443-6.38039,2.02443ZM54.60619,214.8593l74.64218,58.41903c3.61983,2.83307,8.71259-.76021,7.25711-5.12037l-37.26414-111.63187c-1.57317-4.71273-7.70948-5.86698-10.88748-2.04795l-35.6234,42.80881c-4.44225,5.33827-3.59324,13.29204,1.87573,17.57235Z" style="fill:#fff;"/></svg>