<?xml version="1.0" encoding="UTF-8"?>
<svg id="a" xmlns="http://www.w3.org/2000/svg" version="1.1" viewBox="0 0 175.6 173.2">
  <!-- Generator: Adobe Illustrator 29.3.0, SVG Export Plug-In . SVG Version: 2.1.0 Build 146)  -->
  <defs>
    <style>
      .st0 {
        fill: #d6d6d6;
      }
    </style>
  </defs>
  <path class="st0" d="M120.5,67c-.6,0-1.2-.1-1.7-.4L42.2,26.8c-1.4-.7-2.2-2.3-2-3.9.2-1.6,1.5-2.9,3.1-3.2L124.8,4.7c1.2-.2,2.4.1,3.2.9.9.8,1.3,2,1.2,3.1l-5,54.8c-.1,1.3-.8,2.4-2,3-.6.3-1.2.5-1.8.5ZM55.4,25.1l55.3,28.8c3.1,1.6,6.9-.4,7.2-3.9l3.4-36.9s-65.8,12.1-65.8,12.1Z"/>
  <path class="st0" d="M160.2,115.4c-1.1,0-2.2-.5-2.9-1.4l-39.7-48.3c-.6-.8-.9-1.8-.8-2.7l5-54.8c.2-1.8,1.5-3.2,3.3-3.4,1.8-.2,3.5.9,4,2.5l34.8,103.1c.6,1.7-.2,3.6-1.7,4.5-.6.3-1.2.5-1.8.5h0ZM126.8,65l23.3,28.3-22.5-66.7-2.9,31.7c-.2,2.4.5,4.8,2,6.6Z"/>
  <path class="st0" d="M86.2,166.8c-.8,0-1.6-.3-2.3-.8-1.3-1-1.8-2.7-1.3-4.2l34.3-99.8c.4-1.3,1.6-2.2,2.9-2.5,1.3-.2,2.7.3,3.6,1.3l39.7,48.3c.7.8,1,1.9.8,2.9-.1,1-.7,2-1.6,2.6l-74.1,51.5c-.6.5-1.4.7-2.2.7h0ZM119.6,77.5l-26.1,75.8,61.2-42.5-28.4-34.5c-1.9-2.4-5.7-1.7-6.7,1.2Z"/>
  <path class="st0" d="M15.1,111.2c-1.2,0-2.4-.6-3.1-1.7-.7-1-.8-2.3-.4-3.5L40.4,22.2c.4-1,1.2-1.9,2.2-2.3,1-.4,2.2-.3,3.1.2l76.4,39.8c1.1.6,1.9,1.5,2.1,2.7.3,1.8-.7,3.5-2.3,4.2L16.5,110.9c-.5.2-1,.3-1.5.3ZM46.1,28.8l-24.7,71.9,83.7-35c2.6-1.1,2.8-4.7.3-6,0,0-59.2-30.8-59.2-30.8Z"/>
  <path class="st0" d="M86.2,166.8c-.8,0-1.7-.3-2.3-.8L12.8,110.5c-.8-.6-1.4-1.5-1.5-2.6-.2-1.7.7-3.3,2.3-4l105.4-44.1c1.6-.7,3.6-.2,4.6,1.4.7,1,.8,2.3.4,3.5l-34.3,99.6c-.4,1.2-1.3,2-2.5,2.4-.4.1-.7.2-1.1.2h0ZM22.5,108.4l61.8,48.4,27.3-79.5c1-2.8-1.9-5.5-4.6-4.3L22.5,108.4Z"/>
  <path d="M52.7,69c-.9,0-1.8-.2-2.6-.6-1.6-.8-2.7-2.4-3.1-4.2l-8.6-38.7c-.2-.7-.2-1.5,0-2.2.4-2.6,2.4-4.4,4.7-4.9L124.6,3.5c3-.5,5.9,1.3,6.7,4.3.6,2.3-.4,4.8-2.3,6.3l-72.8,53.8c-1,.8-2.2,1.1-3.5,1.1h0ZM51.8,32.3l3.6,16.3c.5,2.1,3,3.1,4.8,1.8l35.4-26.2c1.5-1.1.5-3.5-1.4-3.2l-39.8,7.3c-1.8.3-3,2.1-2.6,4h0Z"/>
  <path d="M160.4,118.3c-.8,0-1.6-.2-2.4-.5l-107.7-49.2c-2.3-1-3.7-3.5-3.4-6.1.2-1.6,1.2-3.1,2.5-4.1L122.2,4.6c2.1-1.6,5.1-1.6,7.2.2.9.7,1.5,1.7,1.8,2.7l34.7,103c.7,2.2.1,4.6-1.6,6.2-1.1,1-2.5,1.5-3.9,1.5ZM70,64.7l71.5,32.7c3.4,1.6,7-1.7,5.8-5.3l-22.7-67.4c-1-2.9-4.6-4.1-7-2.2l-48.3,35.7c-2.3,1.7-2,5.3.7,6.5h0Z"/>
  <path d="M86.3,169.7c-.6,0-1.2,0-1.8-.3-1.7-.6-3.1-1.9-3.7-3.7l-33.6-100.7c-.7-2.2,0-4.6,1.6-6.2,1.7-1.6,4.2-1.9,6.3-1l107.7,49.2c1.9.9,3.2,2.7,3.4,4.8.2,2.1-.8,4.1-2.5,5.3l-74.1,51.5c-1,.7-2.2,1-3.3,1h0ZM64.8,81.1l22.6,67.6c1,3,4.6,4.2,7.2,2.4l48.3-33.5c2.6-1.8,2.2-5.7-.6-7l-73-33.4c-2.5-1.2-5.3,1.3-4.4,3.9Z"/>
  <path d="M15.2,114.1c-1.2,0-2.3-.3-3.4-1.1-2.2-1.5-2.9-4.3-2.1-6.8L38.6,22.4c1-2.8,3.8-4.5,6.8-3.8,2.3.5,4,2.4,4.5,4.6l8.6,38.8c.4,1.8,0,3.6-1.2,5l-37.5,45c-1.1,1.4-2.8,2.1-4.5,2.1ZM41.4,50.1l-8.5,24.9c-.4,1,1,1.8,1.7.9l10.5-12.6c.9-1.1,1.2-2.5.9-3.8l-2.1-9.3c-.3-1.3-2.1-1.4-2.5-.1Z"/>
  <path d="M86.3,169.7c-1.3,0-2.5-.4-3.6-1.2L11.6,112.8c-1.2-1-2-2.4-2.2-4-.2-1.6.3-3.1,1.3-4.4l37.5-45c1.4-1.6,3.5-2.4,5.6-2,2.1.4,3.8,1.9,4.5,3.9l33.6,100.7c.8,2.4,0,5.1-2.2,6.6-1,.7-2.2,1.1-3.4,1.1h0ZM28.8,111.5l39.4,30.8c1.9,1.5,4.6-.4,3.8-2.7l-19.7-58.9c-.8-2.5-4.1-3.1-5.7-1.1l-18.8,22.6c-2.3,2.8-1.9,7,1,9.3h0Z"/>
</svg>