<?xml version="1.0" encoding="UTF-8"?>
<svg id="a" xmlns="http://www.w3.org/2000/svg" version="1.1" viewBox="0 0 175.6 173.2">
  <!-- Generator: Adobe Illustrator 29.3.0, SVG Export Plug-In . SVG Version: 2.1.0 Build 146)  -->
  <defs>
    <style>
      .st0 {
        fill: #474747;
      }

      .st1 {
        fill: #fff;
      }
    </style>
  </defs>
  <path class="st0" d="M120.8,66.9c-.6,0-1.2-.1-1.8-.4L41.3,25.9c-1.5-.8-2.3-2.4-2-4,.2-1.6,1.5-2.9,3.1-3.2L125.2,3.5c1.2-.2,2.4.1,3.3.9.9.8,1.3,2,1.2,3.2l-5.1,55.7c-.1,1.3-.9,2.4-2,3-.6.3-1.2.5-1.8.5ZM54.7,24.3l56.2,29.2c3.2,1.6,7-.4,7.3-4l3.4-37.5s-66.9,12.3-66.9,12.3Z"/>
  <path class="st0" d="M161.2,115.9c-1.1,0-2.2-.5-3-1.4l-40.4-49.1c-.6-.8-.9-1.8-.9-2.8l5.1-55.7c.2-1.8,1.6-3.3,3.4-3.5,1.8-.2,3.5.9,4.1,2.6l35.3,104.8c.6,1.8-.2,3.7-1.8,4.6-.6.3-1.2.5-1.9.5h0ZM127.2,64.7l23.7,28.8-22.8-67.7-2.9,32.2c-.2,2.4.5,4.9,2.1,6.7Z"/>
  <path class="st0" d="M85.9,168.2c-.8,0-1.6-.3-2.3-.8-1.3-1-1.9-2.7-1.3-4.3l34.9-101.4c.5-1.3,1.6-2.3,2.9-2.5,1.4-.2,2.8.3,3.6,1.3l40.4,49.1c.7.8,1,1.9.8,3-.1,1.1-.7,2-1.6,2.6l-75.3,52.3c-.7.5-1.4.7-2.2.7h0ZM119.9,77.5l-26.5,77,62.2-43.2-28.8-35.1c-2-2.4-5.8-1.7-6.8,1.2Z"/>
  <path class="st0" d="M13.7,111.7c-1.2,0-2.4-.6-3.2-1.7-.7-1-.8-2.4-.4-3.5L39.4,21.3c.4-1.1,1.2-1.9,2.2-2.3,1-.4,2.2-.4,3.2.2l77.6,40.4c1.1.6,1.9,1.6,2.1,2.8.3,1.8-.7,3.6-2.3,4.2L15.2,111.4c-.5.2-1,.3-1.5.3ZM45.2,28l-25.1,73,85-35.6c2.6-1.1,2.8-4.8.3-6.1,0,0-60.1-31.3-60.1-31.3Z"/>
  <path class="st0" d="M85.9,168.2c-.8,0-1.7-.3-2.4-.8L11.5,111c-.8-.6-1.4-1.6-1.6-2.6-.2-1.8.8-3.4,2.3-4.1l107.1-44.8c1.7-.7,3.6-.2,4.7,1.4.7,1,.8,2.4.4,3.5l-34.8,101.2c-.4,1.2-1.4,2.1-2.5,2.4-.4.1-.7.2-1.1.2h0ZM21.2,108.9l62.8,49.2,27.8-80.7c1-2.9-1.9-5.6-4.7-4.4L21.2,108.9Z"/>
  <path class="st1" d="M51.9,68.9c-.9,0-1.8-.2-2.7-.6-1.7-.8-2.8-2.4-3.2-4.2l-8.7-39.3c-.2-.7-.2-1.5,0-2.3.4-2.6,2.4-4.5,4.8-4.9L125,2.3c3-.6,6,1.3,6.8,4.4.6,2.4-.4,4.9-2.4,6.4l-73.9,54.7c-1,.8-2.3,1.2-3.5,1.2h0ZM51.1,31.5l3.7,16.6c.5,2.2,3.1,3.1,4.9,1.8l36-26.6c1.6-1.1.5-3.6-1.4-3.3l-40.4,7.4c-1.9.3-3.1,2.2-2.7,4h0Z"/>
  <path class="st1" d="M161.3,118.9c-.8,0-1.7-.2-2.5-.5l-109.4-50c-2.3-1.1-3.8-3.5-3.4-6.2.2-1.7,1.2-3.1,2.5-4.1L122.5,3.4c2.1-1.6,5.1-1.6,7.4.2.9.7,1.5,1.7,1.8,2.8l35.3,104.6c.8,2.2.1,4.7-1.7,6.3-1.1,1-2.5,1.5-4,1.5ZM69.5,64.5l72.7,33.2c3.5,1.6,7.1-1.7,5.9-5.3l-23.1-68.5c-1-3-4.6-4.1-7.2-2.2l-49,36.3c-2.4,1.8-2,5.4.7,6.6h0Z"/>
  <path class="st1" d="M86.1,171.2c-.6,0-1.3,0-1.9-.3-1.8-.6-3.2-2-3.8-3.8l-34.1-102.3c-.7-2.2,0-4.7,1.7-6.3,1.8-1.6,4.3-2,6.4-1l109.4,50c1.9.9,3.3,2.7,3.4,4.9.2,2.1-.8,4.2-2.5,5.4l-75.3,52.3c-1,.7-2.2,1.1-3.4,1.1h0ZM64.3,81.1l22.9,68.7c1,3,4.7,4.2,7.3,2.4l49-34.1c2.6-1.8,2.3-5.8-.6-7.1l-74.2-33.9c-2.6-1.2-5.3,1.3-4.4,4Z"/>
  <path class="st1" d="M13.9,114.6c-1.2,0-2.4-.4-3.4-1.1-2.2-1.5-3-4.4-2.1-6.9L37.6,21.5c1-2.8,3.9-4.5,6.9-3.9,2.3.5,4,2.4,4.5,4.7l8.7,39.4c.4,1.8,0,3.7-1.2,5.1l-38.1,45.8c-1.2,1.4-2.8,2.1-4.6,2.1ZM40.4,49.7l-8.7,25.3c-.4,1,1,1.8,1.7,1l10.7-12.8c.9-1.1,1.2-2.5.9-3.8l-2.1-9.4c-.3-1.3-2.1-1.4-2.5-.1Z"/>
  <path class="st1" d="M86.1,171.2c-1.3,0-2.6-.4-3.7-1.3L10.2,113.4c-1.3-1-2.1-2.4-2.2-4-.2-1.6.3-3.2,1.3-4.4l38.1-45.8c1.4-1.7,3.5-2.4,5.7-2,2.1.4,3.8,1.9,4.5,4l34.1,102.3c.8,2.5,0,5.2-2.2,6.7-1,.7-2.2,1.1-3.4,1.1h0ZM27.7,112l40,31.3c1.9,1.5,4.7-.4,3.9-2.7l-20-59.8c-.8-2.5-4.1-3.1-5.8-1.1l-19.1,22.9c-2.4,2.9-1.9,7.1,1,9.4h0Z"/>
</svg>